<svg id="Layer_1" data-name="Layer 1" xmlns="http://www.w3.org/2000/svg" viewBox="0 0 23.147 13.062">
  <defs>
    <style>
      .cls-1 {
        fill: #00e3ed;
      }

      .cls-2 {
        fill: #e6e6e6;
      }
    </style>
  </defs>
  <title>2b1b939b-24e8-4826-bc3a-c48a2bae62ee</title>
  <g>
    <path class="cls-1" d="M16.914,4.328V1.549A1.55,1.55,0,0,0,15.365,0H1.549A1.55,1.55,0,0,0,0,1.549v9.964a1.55,1.55,0,0,0,1.549,1.549H15.365a1.55,1.55,0,0,0,1.549-1.549V6.979h-1v4.534a.549.549,0,0,1-.549.549H1.549A.549.549,0,0,1,1,11.513V1.549A.549.549,0,0,1,1.549,1H15.365a.549.549,0,0,1,.549.549V4.328Z"/>
    <circle class="cls-1" cx="3.457" cy="2.659" r="0.563"/>
    <circle class="cls-1" cx="5.412" cy="2.659" r="0.563"/>
    <circle class="cls-1" cx="7.228" cy="2.659" r="0.563"/>
  </g>
  <path class="cls-2" d="M21.322,3.828a1.822,1.822,0,0,0-1.747,1.325H18.161a1.825,1.825,0,1,0,0,1h1.415a1.822,1.822,0,1,0,1.747-2.325Zm-4.908,2.65a.825.825,0,1,1,.825-.825A.826.826,0,0,1,16.414,6.479Zm4.908,0a.825.825,0,1,1,.825-.825A.826.826,0,0,1,21.322,6.479Z"/>
</svg>
