<?xml version="1.0" encoding="utf-8"?>
<!-- Generator: Adobe Illustrator 20.1.0, SVG Export Plug-In . SVG Version: 6.00 Build 0)  -->
<svg version="1.1" id="Layer_1" xmlns="http://www.w3.org/2000/svg" xmlns:xlink="http://www.w3.org/1999/xlink" x="0px" y="0px"
	 viewBox="0 0 576 143.4" style="enable-background:new 0 0 576 143.4;" xml:space="preserve">
<style type="text/css">
	.st0{fill:#22222B;}
	.st1{clip-path:url(#SVGID_2_);}
	.st2{fill:#803FF4;}
</style>
<path class="st0" d="M0,71.6l44.9-22.5c16.6-8.3,36.6-6.6,51.4,4.6l15.9,11.9c18.5,13.9,44.3,12.9,61.8-2.3l20-17.5
	c13.6-11.9,32.6-15.4,49.5-9l21.8,8.2c14.3,5.4,30.3,3.8,43.2-4.3l25.5-16c15.9-9.9,36.1-9.9,52,0l15.1,9.4
	c18.3,11.5,42,9.6,58.3-4.7l19.8-17.3c15-13.1,36.4-15.9,54.3-7L576,26.4v117L0,143.2V71.6z"/>
<g>
	<g>
		<defs>
			<path id="SVGID_1_" d="M0,71.6l44.9-22.5c16.6-8.3,36.6-6.6,51.4,4.6l15.9,11.9c18.5,13.9,44.3,12.9,61.8-2.3l20-17.5
				c13.6-11.9,32.6-15.4,49.5-9l21.8,8.2c14.3,5.4,30.3,3.8,43.2-4.3l25.5-16c15.9-9.9,36.1-9.9,52,0l15.1,9.4
				c18.3,11.5,42,9.6,58.3-4.7l19.8-17.3c15-13.1,36.4-15.9,54.3-7L576,26.4v117L0,143.2V71.6z"/>
		</defs>
		<clipPath id="SVGID_2_">
			<use xlink:href="#SVGID_1_"  style="overflow:visible;"/>
		</clipPath>
		<g class="st1">
			<rect x="71.6" y="-60.5" class="st2" width="0.7" height="2.5"/>
			<rect x="71.6" y="7.3" class="st2" width="0.7" height="5"/>
			<rect x="71.6" y="0.3" class="st2" width="0.7" height="5"/>
			<rect x="71.6" y="14.3" class="st2" width="0.7" height="5"/>
			<rect x="71.6" y="-6.8" class="st2" width="0.7" height="5"/>
			<rect x="71.6" y="35.4" class="st2" width="0.7" height="5"/>
			<rect x="71.6" y="21.4" class="st2" width="0.7" height="5"/>
			<rect x="71.6" y="28.4" class="st2" width="0.7" height="5"/>
			<rect x="71.6" y="-34.9" class="st2" width="0.7" height="5"/>
			<rect x="71.6" y="-41.9" class="st2" width="0.7" height="5"/>
			<rect x="71.6" y="-13.8" class="st2" width="0.7" height="5"/>
			<rect x="71.6" y="-49" class="st2" width="0.7" height="5"/>
			<rect x="71.6" y="-27.9" class="st2" width="0.7" height="5"/>
			<rect x="71.6" y="-20.8" class="st2" width="0.7" height="5"/>
			<rect x="71.6" y="-56" class="st2" width="0.7" height="5"/>
			<rect x="143.6" y="-60.5" class="st2" width="0.7" height="2.5"/>
			<rect x="143.6" y="-6.8" class="st2" width="0.7" height="5"/>
			<rect x="143.6" y="-13.8" class="st2" width="0.7" height="5"/>
			<rect x="143.6" y="7.3" class="st2" width="0.7" height="5"/>
			<rect x="143.6" y="28.4" class="st2" width="0.7" height="5"/>
			<rect x="143.6" y="-20.8" class="st2" width="0.7" height="5"/>
			<rect x="143.6" y="14.3" class="st2" width="0.7" height="5"/>
			<rect x="143.6" y="21.4" class="st2" width="0.7" height="5"/>
			<rect x="143.6" y="-49" class="st2" width="0.7" height="5"/>
			<rect x="143.6" y="-27.9" class="st2" width="0.7" height="5"/>
			<rect x="143.6" y="35.4" class="st2" width="0.7" height="5"/>
			<rect x="143.6" y="-56" class="st2" width="0.7" height="5"/>
			<rect x="143.6" y="-41.9" class="st2" width="0.7" height="5"/>
			<rect x="143.6" y="-34.9" class="st2" width="0.7" height="5"/>
			<rect x="143.6" y="0.3" class="st2" width="0.7" height="5"/>
			<rect x="143.6" y="42.5" class="st2" width="0.7" height="5"/>
			<rect x="143.6" y="49.5" class="st2" width="0.7" height="5"/>
			<rect x="143.6" y="63.6" class="st2" width="0.7" height="5"/>
			<rect x="143.6" y="56.5" class="st2" width="0.7" height="5"/>
			<rect x="215.6" y="-60.5" class="st2" width="0.7" height="2.5"/>
			<rect x="215.6" y="-13.8" class="st2" width="0.7" height="5"/>
			<rect x="215.6" y="0.3" class="st2" width="0.7" height="5"/>
			<rect x="215.6" y="14.3" class="st2" width="0.7" height="5"/>
			<rect x="215.6" y="21.4" class="st2" width="0.7" height="5"/>
			<rect x="215.6" y="7.3" class="st2" width="0.7" height="5"/>
			<rect x="215.6" y="-49" class="st2" width="0.7" height="5"/>
			<rect x="215.6" y="-41.9" class="st2" width="0.7" height="5"/>
			<rect x="215.6" y="-56" class="st2" width="0.7" height="5"/>
			<rect x="215.6" y="-34.9" class="st2" width="0.7" height="5"/>
			<rect x="215.6" y="-20.8" class="st2" width="0.7" height="5"/>
			<rect x="215.6" y="-27.9" class="st2" width="0.7" height="5"/>
			<rect x="215.6" y="-6.8" class="st2" width="0.7" height="5"/>
			<rect x="287.6" y="-60.5" class="st2" width="0.7" height="2.5"/>
			<rect x="287.6" y="35.4" class="st2" width="0.7" height="5"/>
			<rect x="287.6" y="-34.9" class="st2" width="0.7" height="5"/>
			<rect x="287.6" y="-20.8" class="st2" width="0.7" height="5"/>
			<rect x="287.6" y="-27.9" class="st2" width="0.7" height="5"/>
			<rect x="287.6" y="-56" class="st2" width="0.7" height="5"/>
			<rect x="287.6" y="-41.9" class="st2" width="0.7" height="5"/>
			<rect x="287.6" y="-49" class="st2" width="0.7" height="5"/>
			<rect x="287.6" y="-13.8" class="st2" width="0.7" height="5"/>
			<rect x="287.6" y="14.3" class="st2" width="0.7" height="5"/>
			<rect x="287.6" y="21.4" class="st2" width="0.7" height="5"/>
			<rect x="287.6" y="28.4" class="st2" width="0.7" height="5"/>
			<rect x="287.6" y="0.3" class="st2" width="0.7" height="5"/>
			<rect x="287.6" y="7.3" class="st2" width="0.7" height="5"/>
			<rect x="287.6" y="-6.8" class="st2" width="0.7" height="5"/>
			<rect x="359.7" y="-60.5" class="st2" width="0.7" height="2.5"/>
			<path class="st2" d="M360,12.3h0.4v-5h-0.7V12C359.8,12.1,359.9,12.2,360,12.3z"/>
			<rect x="359.7" y="0.3" class="st2" width="0.7" height="5"/>
			<rect x="359.7" y="-6.8" class="st2" width="0.7" height="5"/>
			<rect x="359.7" y="-27.9" class="st2" width="0.7" height="5"/>
			<rect x="359.7" y="-41.9" class="st2" width="0.7" height="5"/>
			<rect x="359.7" y="-13.8" class="st2" width="0.7" height="5"/>
			<rect x="359.7" y="-34.9" class="st2" width="0.7" height="5"/>
			<rect x="359.7" y="-49" class="st2" width="0.7" height="5"/>
			<rect x="359.7" y="-20.8" class="st2" width="0.7" height="5"/>
			<rect x="359.7" y="-56" class="st2" width="0.7" height="5"/>
			<rect x="431.7" y="-60.5" class="st2" width="0.7" height="2.5"/>
			<rect x="431.7" y="0.3" class="st2" width="0.7" height="5"/>
			<rect x="431.7" y="-6.8" class="st2" width="0.7" height="5"/>
			<rect x="431.7" y="14.3" class="st2" width="0.7" height="5"/>
			<rect x="431.7" y="-13.8" class="st2" width="0.7" height="5"/>
			<rect x="431.7" y="28.4" class="st2" width="0.7" height="5"/>
			<rect x="431.7" y="21.4" class="st2" width="0.7" height="5"/>
			<path class="st2" d="M432.4,39.3v-3.9h-0.7v4.4C431.9,39.6,432.2,39.4,432.4,39.3z"/>
			<rect x="431.7" y="-20.8" class="st2" width="0.7" height="5"/>
			<rect x="431.7" y="-41.9" class="st2" width="0.7" height="5"/>
			<rect x="431.7" y="-56" class="st2" width="0.7" height="5"/>
			<rect x="431.7" y="-49" class="st2" width="0.7" height="5"/>
			<rect x="431.7" y="-34.9" class="st2" width="0.7" height="5"/>
			<rect x="431.7" y="-27.9" class="st2" width="0.7" height="5"/>
			<rect x="431.7" y="7.3" class="st2" width="0.7" height="5"/>
			<rect x="503.7" y="-60.5" class="st2" width="0.7" height="2.5"/>
			<rect x="503.7" y="-6.8" class="st2" width="0.7" height="5"/>
			<rect x="503.7" y="-13.8" class="st2" width="0.7" height="5"/>
			<rect x="503.7" y="-41.9" class="st2" width="0.7" height="5"/>
			<rect x="503.7" y="-20.8" class="st2" width="0.7" height="5"/>
			<rect x="503.7" y="-56" class="st2" width="0.7" height="5"/>
			<rect x="503.7" y="-49" class="st2" width="0.7" height="5"/>
			<rect x="503.7" y="-27.9" class="st2" width="0.7" height="5"/>
			<rect x="503.7" y="-34.9" class="st2" width="0.7" height="5"/>
		</g>
	</g>
</g>
</svg>
