<?xml version="1.0" encoding="utf-8"?>
<!-- Generator: Adobe Illustrator 18.0.0, SVG Export Plug-In . SVG Version: 6.00 Build 0)  -->
<!DOCTYPE svg PUBLIC "-//W3C//DTD SVG 1.1//EN" "http://www.w3.org/Graphics/SVG/1.1/DTD/svg11.dtd">
<svg version="1.1" id="Layer_1" xmlns="http://www.w3.org/2000/svg" xmlns:xlink="http://www.w3.org/1999/xlink" x="0px" y="0px"
	 width="1200px" height="1200px" viewBox="0 0 1200 1200" enable-background="new 0 0 1200 1200" xml:space="preserve">

   <defs>

    <linearGradient id="SVGID_1_" gradientUnits="userSpaceOnUse" x1="573.7" y1="910.25" x2="639.9" y2="910.25" gradientTransform="matrix(1 0 0 -1 0 1200)">
    	<stop  offset="0" style="stop-color:#FF2A95"/>
    	<stop  offset="1" style="stop-color:#3F9CFF"/>
    </linearGradient>
    <line id="piece" fill="none" stroke="url(#SVGID_1_)" stroke-linecap="round" stroke-miterlimit="10" x1="574.2" y1="354.1" x2="639.4" y2="225.4"/>

  </defs>

  <use x="0" y="0" xlink:href="#piece"/>
  <use x="0" y="0" xlink:href="#piece" transform="rotate(-6 600 600)"/>
<use x="0" y="0" xlink:href="#piece" transform="rotate(-12 600 600)"/>
<use x="0" y="0" xlink:href="#piece" transform="rotate(-18 600 600)"/>
<use x="0" y="0" xlink:href="#piece" transform="rotate(-24 600 600)"/>
<use x="0" y="0" xlink:href="#piece" transform="rotate(-30 600 600)"/>
<use x="0" y="0" xlink:href="#piece" transform="rotate(-36 600 600)"/>
<use x="0" y="0" xlink:href="#piece" transform="rotate(-42 600 600)"/>
<use x="0" y="0" xlink:href="#piece" transform="rotate(-48 600 600)"/>
<use x="0" y="0" xlink:href="#piece" transform="rotate(-54 600 600)"/>
<use x="0" y="0" xlink:href="#piece" transform="rotate(-60 600 600)"/>
<use x="0" y="0" xlink:href="#piece" transform="rotate(-66 600 600)"/>
<use x="0" y="0" xlink:href="#piece" transform="rotate(-72 600 600)"/>
<use x="0" y="0" xlink:href="#piece" transform="rotate(-78 600 600)"/>
<use x="0" y="0" xlink:href="#piece" transform="rotate(-84 600 600)"/>
<use x="0" y="0" xlink:href="#piece" transform="rotate(-90 600 600)"/>
<use x="0" y="0" xlink:href="#piece" transform="rotate(-96 600 600)"/>
<use x="0" y="0" xlink:href="#piece" transform="rotate(-102 600 600)"/>
<use x="0" y="0" xlink:href="#piece" transform="rotate(-108 600 600)"/>
<use x="0" y="0" xlink:href="#piece" transform="rotate(-114 600 600)"/>
<use x="0" y="0" xlink:href="#piece" transform="rotate(-120 600 600)"/>
<use x="0" y="0" xlink:href="#piece" transform="rotate(-126 600 600)"/>
<use x="0" y="0" xlink:href="#piece" transform="rotate(-132 600 600)"/>
<use x="0" y="0" xlink:href="#piece" transform="rotate(-138 600 600)"/>
<use x="0" y="0" xlink:href="#piece" transform="rotate(-144 600 600)"/>
<use x="0" y="0" xlink:href="#piece" transform="rotate(-150 600 600)"/>
<use x="0" y="0" xlink:href="#piece" transform="rotate(-156 600 600)"/>
<use x="0" y="0" xlink:href="#piece" transform="rotate(-162 600 600)"/>
<use x="0" y="0" xlink:href="#piece" transform="rotate(-168 600 600)"/>
<use x="0" y="0" xlink:href="#piece" transform="rotate(-174 600 600)"/>
<use x="0" y="0" xlink:href="#piece" transform="rotate(-180 600 600)"/>
<use x="0" y="0" xlink:href="#piece" transform="rotate(-186 600 600)"/>
<use x="0" y="0" xlink:href="#piece" transform="rotate(-192 600 600)"/>
<use x="0" y="0" xlink:href="#piece" transform="rotate(-198 600 600)"/>
<use x="0" y="0" xlink:href="#piece" transform="rotate(-204 600 600)"/>
<use x="0" y="0" xlink:href="#piece" transform="rotate(-210 600 600)"/>
<use x="0" y="0" xlink:href="#piece" transform="rotate(-216 600 600)"/>
<use x="0" y="0" xlink:href="#piece" transform="rotate(-222 600 600)"/>
<use x="0" y="0" xlink:href="#piece" transform="rotate(-228 600 600)"/>
<use x="0" y="0" xlink:href="#piece" transform="rotate(-234 600 600)"/>
<use x="0" y="0" xlink:href="#piece" transform="rotate(-240 600 600)"/>
<use x="0" y="0" xlink:href="#piece" transform="rotate(-246 600 600)"/>
<use x="0" y="0" xlink:href="#piece" transform="rotate(-252 600 600)"/>
<use x="0" y="0" xlink:href="#piece" transform="rotate(-258 600 600)"/>
<use x="0" y="0" xlink:href="#piece" transform="rotate(-264 600 600)"/>
<use x="0" y="0" xlink:href="#piece" transform="rotate(-270 600 600)"/>
<use x="0" y="0" xlink:href="#piece" transform="rotate(-276 600 600)"/>
<use x="0" y="0" xlink:href="#piece" transform="rotate(-282 600 600)"/>
<use x="0" y="0" xlink:href="#piece" transform="rotate(-288 600 600)"/>
<use x="0" y="0" xlink:href="#piece" transform="rotate(-294 600 600)"/>
<use x="0" y="0" xlink:href="#piece" transform="rotate(-300 600 600)"/>
<use x="0" y="0" xlink:href="#piece" transform="rotate(-306 600 600)"/>
<use x="0" y="0" xlink:href="#piece" transform="rotate(-312 600 600)"/>
<use x="0" y="0" xlink:href="#piece" transform="rotate(-318 600 600)"/>
<use x="0" y="0" xlink:href="#piece" transform="rotate(-324 600 600)"/>
<use x="0" y="0" xlink:href="#piece" transform="rotate(-330 600 600)"/>
<use x="0" y="0" xlink:href="#piece" transform="rotate(-336 600 600)"/>
<use x="0" y="0" xlink:href="#piece" transform="rotate(-342 600 600)"/>
<use x="0" y="0" xlink:href="#piece" transform="rotate(-348 600 600)"/>
<use x="0" y="0" xlink:href="#piece" transform="rotate(-354 600 600)"/>

</svg>
